<svg width="20" height="20" viewBox="0 0 20 20" fill="none" xmlns="http://www.w3.org/2000/svg">
<g clip-path="url(#clip0_1043_31)">
<path d="M18.3334 10H16.2667C15.9025 9.99923 15.5481 10.1178 15.2576 10.3375C14.9672 10.5572 14.7567 10.866 14.6584 11.2167L12.7 18.1833C12.6874 18.2266 12.6611 18.2646 12.625 18.2917C12.589 18.3187 12.5451 18.3333 12.5 18.3333C12.4549 18.3333 12.4111 18.3187 12.375 18.2917C12.339 18.2646 12.3126 18.2266 12.3 18.1833L7.70002 1.81667C7.6874 1.7734 7.66108 1.73538 7.62502 1.70834C7.58896 1.68129 7.5451 1.66667 7.50002 1.66667C7.45494 1.66667 7.41108 1.68129 7.37502 1.70834C7.33896 1.73538 7.31264 1.7734 7.30002 1.81667L5.34169 8.78334C5.24374 9.13263 5.0345 9.44043 4.74574 9.66002C4.45698 9.8796 4.10445 9.99897 3.74169 10H1.66669" stroke="white" stroke-width="1.66667" stroke-linecap="round" stroke-linejoin="round"/>
</g>
<defs>
<clipPath id="clip0_1043_31">
<rect width="20" height="20" fill="white"/>
</clipPath>
</defs>
</svg>
