<svg width="20" height="20" viewBox="0 0 20 20" fill="none" xmlns="http://www.w3.org/2000/svg">
<path d="M18.759 15.3353L11.5648 2.90054C11.4079 2.62716 11.1804 2.39976 10.9055 2.24156C10.6306 2.08335 10.3182 2 10 2C9.68187 2 9.3694 2.08335 9.09451 2.24156C8.81962 2.39976 8.59214 2.62716 8.43527 2.90054L1.241 15.3353C1.08244 15.6066 0.999302 15.9144 1 16.2275C1.00071 16.5407 1.08523 16.8482 1.245 17.1187C1.40478 17.3892 1.63412 17.6132 1.9098 17.768C2.18547 17.9227 2.49767 18.0027 2.81475 17.9999H17.2033C17.5188 17.9996 17.8288 17.9173 18.1019 17.7613C18.3751 17.6052 18.6019 17.3809 18.7595 17.1109C18.9171 16.8409 19.0001 16.5347 19 16.2231C18.9999 15.9114 18.9168 15.6052 18.759 15.3353Z" stroke="white" stroke-width="1.66667" stroke-linecap="round" stroke-linejoin="round"/>
<path d="M10 7.5V10.8333" stroke="white" stroke-width="1.66667" stroke-linecap="round" stroke-linejoin="round"/>
<path d="M10 14.1667H10.0083" stroke="white" stroke-width="1.66667" stroke-linecap="round" stroke-linejoin="round"/>
</svg>
