<svg width="20" height="20" viewBox="0 0 20 20" fill="none" xmlns="http://www.w3.org/2000/svg">
<path d="M14.5833 10C15.0758 10 15.5634 10.097 16.0184 10.2855C16.4734 10.4739 16.8868 10.7501 17.235 11.0984C17.5832 11.4466 17.8594 11.86 18.0479 12.3149C18.2363 12.7699 18.3333 13.2576 18.3333 13.75C18.3333 14.2425 18.2363 14.7301 18.0479 15.1851C17.8594 15.64 17.5832 16.0534 17.235 16.4017C16.8868 16.7499 16.4734 17.0261 16.0184 17.2146C15.5634 17.403 15.0758 17.5 14.5833 17.5H7.50501C6.42295 17.501 5.36194 17.2009 4.44062 16.6335C3.5193 16.066 2.77398 15.2534 2.28798 14.2867C1.80198 13.3199 1.59447 12.237 1.68864 11.159C1.78281 10.0811 2.17495 9.05054 2.82122 8.18267C3.4675 7.3148 4.34242 6.6438 5.34819 6.24467C6.35395 5.84555 7.4509 5.73404 8.51641 5.92261C9.58191 6.11118 10.574 6.59239 11.3817 7.31246C12.1894 8.03252 12.7808 8.96305 13.09 10H14.5833Z" stroke="white" stroke-width="1.66667" stroke-linecap="round" stroke-linejoin="round"/>
<path d="M18.1934 7.50001C18.0209 7.01211 17.7012 6.58976 17.2785 6.29124C16.8558 5.99271 16.3508 5.83272 15.8334 5.83334H13.9942C13.7103 4.83016 13.0928 3.95375 12.2437 3.34876C11.3946 2.74377 10.3646 2.44634 9.3237 2.50557C8.28279 2.56481 7.29319 2.97715 6.5182 3.67456C5.7432 4.37197 5.22914 5.31276 5.06085 6.34167" stroke="white" stroke-width="1.66667" stroke-linecap="round" stroke-linejoin="round"/>
</svg>
