<svg width="20" height="20" viewBox="0 0 20 20" fill="none" xmlns="http://www.w3.org/2000/svg">
<path d="M14.5833 15.8333H7.49999C6.41821 15.833 5.35782 15.532 4.4373 14.9637C3.51679 14.3955 2.77242 13.5824 2.28738 12.6155C1.80234 11.6486 1.59574 10.5658 1.69065 9.48818C1.78557 8.41057 2.17826 7.38058 2.82486 6.51331C3.47146 5.64604 4.34649 4.97565 5.35216 4.57706C6.35783 4.17847 7.45453 4.06739 8.5197 4.25621C9.58487 4.44504 10.5766 4.92634 11.3839 5.64633C12.1913 6.36632 12.7826 7.29664 13.0917 8.33333H14.5833C15.5779 8.33333 16.5317 8.72841 17.235 9.43167C17.9382 10.1349 18.3333 11.0888 18.3333 12.0833C18.3333 13.0779 17.9382 14.0317 17.235 14.735C16.5317 15.4382 15.5779 15.8333 14.5833 15.8333Z" stroke="white" stroke-width="1.66667" stroke-linecap="round" stroke-linejoin="round"/>
</svg>
