<svg width="20" height="20" viewBox="0 0 20 20" fill="none" xmlns="http://www.w3.org/2000/svg">
<path d="M3.33333 12.4158C2.7142 11.7833 2.24714 11.0181 1.96753 10.1783C1.68792 9.33847 1.60309 8.44604 1.71946 7.56859C1.83584 6.69114 2.15038 5.85167 2.63924 5.11379C3.12811 4.3759 3.77848 3.75894 4.54111 3.30963C5.30373 2.86033 6.1586 2.59047 7.04097 2.52049C7.92334 2.45051 8.81006 2.58225 9.63397 2.90572C10.4579 3.2292 11.1974 3.73593 11.7964 4.38754C12.3955 5.03914 12.8384 5.81853 13.0917 6.66667H14.5833C15.3879 6.66658 16.1712 6.92527 16.8175 7.40454C17.4638 7.88381 17.9388 8.55823 18.1723 9.32818C18.4059 10.0981 18.3856 10.9228 18.1144 11.6803C17.8433 12.4379 17.3357 13.0881 16.6667 13.535" stroke="white" stroke-width="1.66667" stroke-linecap="round" stroke-linejoin="round"/>
<path d="M13.3333 14.1667H5.83331" stroke="white" stroke-width="1.66667" stroke-linecap="round" stroke-linejoin="round"/>
<path d="M14.1667 17.5H7.5" stroke="white" stroke-width="1.66667" stroke-linecap="round" stroke-linejoin="round"/>
</svg>
