<svg width="20" height="20" viewBox="0 0 20 20" fill="none" xmlns="http://www.w3.org/2000/svg">
<path d="M17 8.20009C17 12.6938 12.1534 17.3739 10.5259 18.8193C10.3743 18.9366 10.1897 19 10 19C9.8103 19 9.62574 18.9366 9.47413 18.8193C7.84663 17.3739 3 12.6938 3 8.20009C3 6.29051 3.7375 4.45914 5.05025 3.10886C6.36301 1.75858 8.14348 1 10 1C11.8565 1 13.637 1.75858 14.9497 3.10886C16.2625 4.45914 17 6.29051 17 8.20009Z" stroke="white" stroke-width="1.66667" stroke-linecap="round" stroke-linejoin="round"/>
<path d="M10 11C11.6569 11 13 9.88071 13 8.5C13 7.11929 11.6569 6 10 6C8.34315 6 7 7.11929 7 8.5C7 9.88071 8.34315 11 10 11Z" stroke="white" stroke-width="1.66667" stroke-linecap="round" stroke-linejoin="round"/>
</svg>
