<svg width="20" height="20" viewBox="0 0 20 20" fill="none" xmlns="http://www.w3.org/2000/svg">
<path d="M1 7.86266C1.00002 6.8817 1.30383 5.92381 1.87132 5.11552C2.4388 4.30722 3.24326 3.68655 4.17844 3.33547C5.11362 2.98439 6.13553 2.91943 7.10919 3.14915C8.08286 3.37888 8.96248 3.89249 9.63187 4.62215C9.67902 4.67153 9.73602 4.7109 9.79934 4.73781C9.86266 4.76472 9.93095 4.77861 9.99997 4.77861C10.069 4.77861 10.1373 4.76472 10.2006 4.73781C10.2639 4.7109 10.3209 4.67153 10.3681 4.62215C11.0354 3.88775 11.9152 3.36982 12.8904 3.1373C13.8657 2.90478 14.8901 2.96871 15.8273 3.32056C16.7646 3.67241 17.5702 4.2955 18.1369 5.10691C18.7037 5.91831 19.0047 6.87954 18.9999 7.86266C18.9999 9.88137 17.6499 11.3888 16.3 12.7111L11.3572 17.3947C11.1895 17.5833 10.9827 17.7349 10.7506 17.8392C10.5185 17.9436 10.2664 17.9984 10.011 18C9.75565 18.0015 9.50286 17.9499 9.26943 17.8484C9.03601 17.7469 8.8273 17.598 8.65718 17.4114L3.69999 12.7111C2.35 11.3888 1 9.89019 1 7.86266Z" stroke="white" stroke-width="1.66667" stroke-linecap="round" stroke-linejoin="round"/>
</svg>
