<svg width="20" height="20" viewBox="0 0 20 20" fill="none" xmlns="http://www.w3.org/2000/svg">
<path d="M16.2222 9H3.77778C2.79594 9 2 9.81403 2 10.8182V17.1818C2 18.186 2.79594 19 3.77778 19H16.2222C17.2041 19 18 18.186 18 17.1818V10.8182C18 9.81403 17.2041 9 16.2222 9Z" stroke="white" stroke-width="1.66667" stroke-linecap="round" stroke-linejoin="round"/>
<path d="M6 9V5.44444C6 4.2657 6.47411 3.13524 7.31802 2.30175C8.16193 1.46825 9.30653 1 10.5 1C11.6935 1 12.8381 1.46825 13.682 2.30175C14.5259 3.13524 15 4.2657 15 5.44444V9" stroke="white" stroke-width="1.66667" stroke-linecap="round" stroke-linejoin="round"/>
</svg>
