<svg width="20" height="20" viewBox="0 0 20 20" fill="none" xmlns="http://www.w3.org/2000/svg">
<path d="M9.16669 16.6667V18.3333" stroke="white" stroke-width="1.66667" stroke-linecap="round" stroke-linejoin="round"/>
<path d="M15.3133 12.0933C16.0288 11.7845 16.6622 11.3127 17.163 10.7156C17.6638 10.1184 18.018 9.41254 18.1975 8.65417C18.3208 8.13334 17.6483 7.84584 17.1575 8.05917C16.5442 8.32444 15.8654 8.39929 15.2091 8.27401C14.5528 8.14873 13.9493 7.8291 13.4769 7.35659C13.0044 6.88409 12.6849 6.28051 12.5598 5.62417C12.4346 4.96784 12.5096 4.28904 12.775 3.67584C12.9875 3.18501 12.7 2.51334 12.1783 2.63584C11.15 2.88016 10.2256 3.44407 9.53773 4.24658C8.84991 5.04909 8.43409 6.04892 8.34998 7.10251" stroke="white" stroke-width="1.66667" stroke-linecap="round" stroke-linejoin="round"/>
<path d="M2.50001 16.6667C2.12546 16.1668 1.86809 15.5891 1.74695 14.9763C1.62581 14.3635 1.644 13.7313 1.80016 13.1265C1.95633 12.5217 2.24648 11.9598 2.64914 11.4822C3.05181 11.0047 3.55669 10.6238 4.12644 10.3678C4.69618 10.1117 5.31621 9.987 5.94064 10.0029C6.56508 10.0188 7.17795 10.1749 7.73392 10.4597C8.28988 10.7444 8.77471 11.1505 9.15254 11.6479C9.53036 12.1454 9.79152 12.7214 9.91668 13.3333H10.8333C11.3404 13.3326 11.8357 13.486 12.2535 13.7733C12.6713 14.0606 12.9919 14.4681 13.1727 14.9419C13.3535 15.4156 13.386 15.9331 13.2658 16.4257C13.1457 16.9183 12.8786 17.3627 12.5 17.7" stroke="white" stroke-width="1.66667" stroke-linecap="round" stroke-linejoin="round"/>
<path d="M5.83331 15.8333V17.5" stroke="white" stroke-width="1.66667" stroke-linecap="round" stroke-linejoin="round"/>
</svg>
