<svg width="20" height="20" viewBox="0 0 20 20" fill="none" xmlns="http://www.w3.org/2000/svg">
<path d="M10.8334 13.3333C11.4964 13.3333 12.1323 13.5967 12.6011 14.0656C13.07 14.5344 13.3334 15.1703 13.3334 15.8333C13.3334 16.4964 13.07 17.1323 12.6011 17.6011C12.1323 18.0699 11.4964 18.3333 10.8334 18.3333H5.83336C5.045 18.3332 4.27287 18.1094 3.60663 17.6879C2.94039 17.2664 2.4074 16.6646 2.06955 15.9523C1.7317 15.24 1.60286 14.4465 1.69799 13.6639C1.79313 12.8813 2.10833 12.1417 2.60699 11.5311C3.10566 10.9205 3.76732 10.4639 4.51513 10.2143C5.26294 9.96473 6.06621 9.93243 6.83164 10.1211C7.59708 10.3099 8.29327 10.7119 8.83936 11.2805C9.38545 11.8491 9.75902 12.5609 9.91669 13.3333H10.8334Z" stroke="white" stroke-width="1.66667" stroke-linecap="round" stroke-linejoin="round"/>
<path d="M15.3133 12.0933C16.0288 11.7845 16.6622 11.3127 17.163 10.7156C17.6638 10.1184 18.018 9.41254 18.1975 8.65417C18.3208 8.13334 17.6483 7.84584 17.1575 8.05917C16.5442 8.32444 15.8654 8.39929 15.2091 8.27401C14.5528 8.14873 13.9493 7.8291 13.4769 7.35659C13.0044 6.88409 12.6849 6.28051 12.5598 5.62417C12.4346 4.96784 12.5096 4.28904 12.775 3.67584C12.9875 3.18501 12.7 2.51334 12.1783 2.63584C11.15 2.88016 10.2256 3.44407 9.53773 4.24658C8.84991 5.04909 8.43409 6.04892 8.34998 7.10251" stroke="white" stroke-width="1.66667" stroke-linecap="round" stroke-linejoin="round"/>
</svg>
