<svg width="20" height="20" viewBox="0 0 20 20" fill="none" xmlns="http://www.w3.org/2000/svg">
<g clip-path="url(#clip0_1047_59)">
<path d="M13 15H8" stroke="white" stroke-width="1.66667" stroke-linecap="round" stroke-linejoin="round"/>
<path d="M15 12H8" stroke="white" stroke-width="1.66667" stroke-linecap="round" stroke-linejoin="round"/>
<path d="M2.8 19H17.2C17.6774 19 18.1352 18.8104 18.4728 18.4728C18.8104 18.1352 19 17.6774 19 17.2V2.8C19 2.32261 18.8104 1.86477 18.4728 1.52721C18.1352 1.18964 17.6774 1 17.2 1H6.4C5.92261 1 5.46477 1.18964 5.12721 1.52721C4.78964 1.86477 4.6 2.32261 4.6 2.8V17.2C4.6 17.6774 4.41036 18.1352 4.07279 18.4728C3.73523 18.8104 3.27739 19 2.8 19ZM2.8 19C2.32261 19 1.86477 18.8104 1.52721 18.4728C1.18964 18.1352 1 17.6774 1 17.2V9.1C1 8.62261 1.18964 8.16477 1.52721 7.82721C1.86477 7.48964 2.32261 7.3 2.8 7.3H4.6" stroke="white" stroke-width="1.66667" stroke-linecap="round" stroke-linejoin="round"/>
<path d="M14.125 5H8.875C8.39175 5 8 5.33579 8 5.75V7.25C8 7.66421 8.39175 8 8.875 8H14.125C14.6082 8 15 7.66421 15 7.25V5.75C15 5.33579 14.6082 5 14.125 5Z" stroke="white" stroke-width="1.66667" stroke-linecap="round" stroke-linejoin="round"/>
</g>
<defs>
<clipPath id="clip0_1047_59">
<rect width="20" height="20" fill="white"/>
</clipPath>
</defs>
</svg>
