<svg width="20" height="20" viewBox="0 0 20 20" fill="none" xmlns="http://www.w3.org/2000/svg">
<path d="M18.3334 14.1667C18.3334 11.9565 17.4554 9.83691 15.8926 8.27411C14.3298 6.7113 12.2102 5.83333 10 5.83333C7.78988 5.83333 5.67027 6.7113 4.10746 8.27411C2.54466 9.83691 1.66669 11.9565 1.66669 14.1667" stroke="white" stroke-width="1.66667" stroke-linecap="round" stroke-linejoin="round"/>
<path d="M5 14.1667C5 12.8406 5.52678 11.5688 6.46447 10.6311C7.40215 9.69346 8.67392 9.16667 10 9.16667C11.3261 9.16667 12.5979 9.69346 13.5355 10.6311C14.4732 11.5688 15 12.8406 15 14.1667" stroke="white" stroke-width="1.66667" stroke-linecap="round" stroke-linejoin="round"/>
<path d="M8.33331 14.1667C8.33331 13.7246 8.50891 13.3007 8.82147 12.9882C9.13403 12.6756 9.55795 12.5 9.99998 12.5C10.442 12.5 10.8659 12.6756 11.1785 12.9882C11.4911 13.3007 11.6666 13.7246 11.6666 14.1667" stroke="white" stroke-width="1.66667" stroke-linecap="round" stroke-linejoin="round"/>
</svg>
