<svg width="20" height="20" viewBox="0 0 20 20" fill="none" xmlns="http://www.w3.org/2000/svg">
<path d="M7.91969 2.90971C7.9689 2.38708 8.20939 1.90175 8.59416 1.54852C8.97893 1.1953 9.48035 0.999573 10.0004 0.999573C10.5205 0.999573 11.022 1.1953 11.4067 1.54852C11.7915 1.90175 12.032 2.38708 12.0812 2.90971C12.1108 3.24733 12.2205 3.57278 12.4011 3.85852C12.5817 4.14426 12.8278 4.38188 13.1186 4.55127C13.4095 4.72065 13.7365 4.81681 14.0719 4.83162C14.4074 4.84642 14.7414 4.77943 15.0458 4.63631C15.5184 4.41972 16.054 4.38838 16.5482 4.54839C17.0424 4.7084 17.46 5.0483 17.7197 5.50195C17.9793 5.95561 18.0625 6.49055 17.9529 7.00266C17.8434 7.51478 17.549 7.96743 17.127 8.27253C16.8522 8.46714 16.6279 8.72569 16.4731 9.0263C16.3182 9.32692 16.2374 9.66075 16.2374 9.99957C16.2374 10.3384 16.3182 10.6722 16.4731 10.9728C16.6279 11.2735 16.8522 11.532 17.127 11.7266C17.549 12.0317 17.8434 12.4844 17.9529 12.9965C18.0625 13.5086 17.9793 14.0435 17.7197 14.4972C17.46 14.9508 17.0424 15.2908 16.5482 15.4508C16.054 15.6108 15.5184 15.5794 15.0458 15.3628C14.7414 15.2197 14.4074 15.1527 14.0719 15.1675C13.7365 15.1823 13.4095 15.2785 13.1186 15.4479C12.8278 15.6173 12.5817 15.8549 12.4011 16.1406C12.2205 16.4264 12.1108 16.7518 12.0812 17.0894C12.032 17.6121 11.7915 18.0974 11.4067 18.4506C11.022 18.8038 10.5205 18.9996 10.0004 18.9996C9.48035 18.9996 8.97893 18.8038 8.59416 18.4506C8.20939 18.0974 7.9689 17.6121 7.91969 17.0894C7.89016 16.7517 7.78043 16.4261 7.5998 16.1403C7.41916 15.8544 7.17293 15.6167 6.88198 15.4473C6.59102 15.2779 6.2639 15.1818 5.92833 15.1671C5.59275 15.1524 5.25861 15.2195 4.9542 15.3628C4.48159 15.5794 3.94605 15.6108 3.4518 15.4508C2.95756 15.2908 2.53998 14.9508 2.28033 14.4972C2.02068 14.0435 1.93754 13.5086 2.04709 12.9965C2.15664 12.4844 2.45104 12.0317 2.873 11.7266C3.14777 11.532 3.37207 11.2735 3.52691 10.9728C3.68176 10.6722 3.7626 10.3384 3.7626 9.99957C3.7626 9.66075 3.68176 9.32692 3.52691 9.0263C3.37207 8.72569 3.14777 8.46714 2.873 8.27253C2.45163 7.96728 2.15775 7.5148 2.04847 7.00303C1.93918 6.49127 2.0223 5.95676 2.28167 5.5034C2.54104 5.05005 2.95813 4.71022 3.45188 4.54997C3.94564 4.38972 4.48078 4.42049 4.95331 4.63631C5.25768 4.77943 5.59173 4.84642 5.92718 4.83162C6.26264 4.81681 6.58962 4.72065 6.88046 4.55127C7.1713 4.38188 7.41743 4.14426 7.59801 3.85852C7.7786 3.57278 7.88832 3.24733 7.9179 2.90971" stroke="white" stroke-width="1.66667" stroke-linecap="round" stroke-linejoin="round"/>
<path d="M10 12.9996C11.6569 12.9996 13 11.6564 13 9.99957C13 8.34272 11.6569 6.99957 10 6.99957C8.34315 6.99957 7 8.34272 7 9.99957C7 11.6564 8.34315 12.9996 10 12.9996Z" stroke="white" stroke-width="1.66667" stroke-linecap="round" stroke-linejoin="round"/>
</svg>
