<svg width="20" height="20" viewBox="0 0 20 20" fill="none" xmlns="http://www.w3.org/2000/svg">
<g clip-path="url(#clip0_1032_259)">
<path d="M10 1.66666V3.33332" stroke="white" stroke-width="1.66667" stroke-linecap="round" stroke-linejoin="round"/>
<path d="M4.10834 4.10834L5.28334 5.28334" stroke="white" stroke-width="1.66667" stroke-linecap="round" stroke-linejoin="round"/>
<path d="M16.6667 10H18.3334" stroke="white" stroke-width="1.66667" stroke-linecap="round" stroke-linejoin="round"/>
<path d="M15.8917 4.10834L14.7167 5.28334" stroke="white" stroke-width="1.66667" stroke-linecap="round" stroke-linejoin="round"/>
<path d="M13.2892 10.5417C13.3917 9.92043 13.3162 9.28284 13.0714 8.70272C12.8266 8.1226 12.4225 7.62369 11.9059 7.26374C11.3892 6.9038 10.7812 6.69755 10.1522 6.66887C9.5232 6.64018 8.89893 6.79025 8.35168 7.10168" stroke="white" stroke-width="1.66667" stroke-linecap="round" stroke-linejoin="round"/>
<path d="M10.8334 18.3333H5.83336C5.045 18.3332 4.27287 18.1094 3.60663 17.6879C2.94039 17.2664 2.4074 16.6646 2.06955 15.9523C1.7317 15.24 1.60286 14.4465 1.69799 13.6639C1.79313 12.8813 2.10833 12.1417 2.60699 11.5311C3.10566 10.9205 3.76732 10.4639 4.51513 10.2143C5.26294 9.96473 6.06621 9.93243 6.83164 10.1211C7.59708 10.3099 8.29327 10.7119 8.83936 11.2805C9.38545 11.8491 9.75902 12.5609 9.91669 13.3333H10.8334C11.4964 13.3333 12.1323 13.5967 12.6011 14.0656C13.07 14.5344 13.3334 15.1703 13.3334 15.8333C13.3334 16.4964 13.07 17.1323 12.6011 17.6011C12.1323 18.0699 11.4964 18.3333 10.8334 18.3333Z" stroke="white" stroke-width="1.66667" stroke-linecap="round" stroke-linejoin="round"/>
</g>
<defs>
<clipPath id="clip0_1032_259">
<rect width="20" height="20" fill="white"/>
</clipPath>
</defs>
</svg>
