<svg width="20" height="20" viewBox="0 0 20 20" fill="none" xmlns="http://www.w3.org/2000/svg">
<path d="M5 13.605C4.12186 13.188 3.36185 12.5582 2.78904 11.7728C2.21624 10.9873 1.84881 10.0712 1.72015 9.10764C1.59148 8.14408 1.70566 7.16364 2.05231 6.25543C2.39896 5.34723 2.96708 4.54005 3.70505 3.90727C4.44301 3.27449 5.32742 2.83617 6.27788 2.63215C7.22834 2.42812 8.21472 2.46487 9.14737 2.73904C10.08 3.01321 10.9294 3.51612 11.6182 4.20205C12.307 4.88798 12.8135 5.73519 13.0917 6.66666H14.5833C15.5429 6.66499 16.4666 7.03123 17.1643 7.69C17.862 8.34876 18.2807 9.24993 18.3341 10.208C18.3875 11.1661 18.0715 12.1082 17.4513 12.8404C16.8311 13.5726 15.9538 14.0392 15 14.1442" stroke="white" stroke-width="1.66667" stroke-linecap="round" stroke-linejoin="round"/>
<path d="M10.8333 10L8.33331 14.1667H11.6666L9.16665 18.3333" stroke="white" stroke-width="1.66667" stroke-linecap="round" stroke-linejoin="round"/>
</svg>
