<svg width="20" height="20" viewBox="0 0 20 20" fill="none" xmlns="http://www.w3.org/2000/svg">
<path d="M10.6667 16.3333C10.878 16.4918 11.1239 16.5978 11.3841 16.6425C11.6444 16.6873 11.9116 16.6696 12.1636 16.5909C12.4157 16.5121 12.6455 16.3746 12.834 16.1896C13.0225 16.0047 13.1643 15.7776 13.2478 15.527C13.3313 15.2765 13.3541 15.0097 13.3143 14.7486C13.2745 14.4876 13.1732 14.2397 13.0188 14.0255C12.8643 13.8112 12.6612 13.6368 12.4262 13.5164C12.1911 13.3961 11.9308 13.3333 11.6667 13.3333H1.66669" stroke="white" stroke-width="1.66667" stroke-linecap="round" stroke-linejoin="round"/>
<path d="M14.5834 6.66666C14.7964 6.38257 15.0786 6.15765 15.403 6.01328C15.7275 5.8689 16.0834 5.80986 16.4371 5.84175C16.7908 5.87364 17.1305 5.99541 17.4238 6.19549C17.7172 6.39558 17.9546 6.66734 18.1134 6.98497C18.2722 7.30259 18.3472 7.65555 18.3312 8.0103C18.3153 8.36506 18.2089 8.70985 18.0222 9.01194C17.8355 9.31402 17.5747 9.56336 17.2645 9.73629C16.9544 9.90922 16.6051 10 16.25 10H1.66669" stroke="white" stroke-width="1.66667" stroke-linecap="round" stroke-linejoin="round"/>
<path d="M8.16669 3.66666C8.37796 3.50821 8.62385 3.40223 8.88412 3.35746C9.14438 3.31268 9.41156 3.3304 9.66363 3.40914C9.91571 3.48788 10.1455 3.6254 10.334 3.81035C10.5225 3.99531 10.6643 4.22241 10.7478 4.47295C10.8313 4.72348 10.8541 4.99028 10.8143 5.25134C10.7745 5.51241 10.6732 5.76027 10.5188 5.97451C10.3643 6.18875 10.1612 6.36323 9.92615 6.48357C9.69108 6.60391 9.43077 6.66666 9.16669 6.66666H1.66669" stroke="white" stroke-width="1.66667" stroke-linecap="round" stroke-linejoin="round"/>
</svg>
